<?xml version="1.0" standalone="no"?>
<!DOCTYPE svg PUBLIC "-//W3C//DTD SVG 20010904//EN"
 "http://www.w3.org/TR/2001/REC-SVG-20010904/DTD/svg10.dtd">
<svg version="1.0" xmlns="http://www.w3.org/2000/svg"
 width="1000.000000pt" height="1000.000000pt" viewBox="0 0 1000.000000 1000.000000"
 preserveAspectRatio="xMidYMid meet">

<g transform="translate(0.000000,1000.000000) scale(0.100000,-0.100000)"
fill="#000000" stroke="none">
<path d="M3853 6345 c-52 -37 -358 -488 -487 -719 -27 -48 -27 -50 -9 -68 18
-18 21 -15 97 129 44 82 99 182 124 223 52 87 169 246 200 274 20 17 22 18 22
2 0 -10 -11 -36 -24 -59 -44 -76 -246 -638 -296 -822 -76 -282 -96 -374 -136
-620 -32 -194 -38 -254 -38 -385 0 -214 28 -296 110 -319 63 -17 111 12 68 43
-80 59 -7 826 112 1179 14 40 52 158 86 262 33 105 96 287 138 405 69 189 115
335 134 422 12 53 -53 87 -101 53z"/>
<path d="M5420 5903 c-32 -85 -99 -333 -171 -633 -55 -227 -68 -268 -92 -295
-19 -21 -26 -36 -21 -50 15 -49 14 -87 -7 -200 -12 -66 -24 -143 -26 -172 -4
-46 -2 -53 20 -68 19 -12 30 -14 45 -6 23 12 29 33 42 137 12 97 38 184 54
184 8 0 25 -18 39 -39 44 -67 124 -138 191 -171 144 -71 312 -42 475 81 42 32
56 38 62 27 5 -7 9 -19 9 -26 0 -7 21 -34 48 -60 33 -34 62 -52 95 -61 104
-30 244 9 333 91 24 22 44 35 44 28 0 -6 -15 -105 -34 -218 -49 -292 -49 -295
-3 -290 29 3 34 8 50 58 26 77 105 412 197 834 43 197 81 360 84 363 8 9 422
44 703 60 78 5 145 11 148 15 3 3 3 18 -1 33 l-7 26 -126 -6 c-137 -7 -630
-35 -671 -38 -22 -2 -25 2 -28 38 -1 22 9 85 24 140 48 184 57 234 44 251 -18
21 -49 17 -60 -8 -10 -24 -95 -331 -112 -405 l-10 -42 -156 -3 -157 -3 -3 -29
c-2 -16 1 -33 5 -37 6 -6 65 -5 148 1 76 6 139 9 141 7 2 -1 -30 -132 -71
-290 -81 -318 -112 -390 -198 -460 -104 -85 -257 -86 -296 -1 -14 32 -9 41 29
49 74 16 225 147 256 222 21 49 18 119 -5 142 -39 39 -174 41 -247 3 -46 -24
-135 -114 -158 -160 -10 -18 -20 -56 -23 -83 -5 -43 -11 -54 -47 -83 -189
-153 -367 -166 -516 -39 -47 40 -130 147 -130 168 0 8 23 14 68 18 104 9 195
41 242 86 64 61 49 103 -50 136 -59 20 -113 17 -198 -11 -29 -9 -55 -15 -57
-12 -8 7 34 205 103 493 74 307 79 341 52 355 -36 19 -48 11 -70 -47z m110
-842 c0 -17 -63 -58 -113 -75 -50 -17 -117 -21 -117 -8 0 12 58 43 129 68 71
25 101 30 101 15z m818 -49 c3 -45 -19 -98 -65 -152 -39 -47 -123 -111 -135
-104 -30 19 19 163 78 233 27 33 91 72 109 67 6 -1 11 -21 13 -44z"/>
<path d="M2609 5668 c-8 -18 -40 -82 -71 -143 -161 -319 -350 -720 -372 -790
-89 -279 -135 -440 -126 -449 12 -12 45 44 60 102 13 48 76 226 171 482 29 80
79 195 109 255 63 125 183 336 188 331 2 -2 -6 -50 -17 -107 -105 -529 -114
-590 -115 -829 -1 -217 7 -247 75 -274 59 -24 100 -20 145 12 40 29 125 129
183 214 31 47 32 49 29 149 l-3 102 -58 -84 c-88 -128 -134 -190 -179 -239
l-42 -45 -9 55 c-13 83 -2 262 32 490 36 240 33 226 76 405 41 172 59 286 50
326 -7 33 -34 54 -80 63 -27 6 -32 3 -46 -26z"/>
<path d="M4044 5100 c-22 -5 -57 -15 -76 -23 -138 -58 -297 -350 -259 -476 22
-74 86 -98 184 -69 47 14 131 88 178 157 19 28 37 51 40 51 4 0 12 -13 18 -29
7 -15 30 -45 51 -66 35 -34 47 -39 98 -43 48 -3 69 1 123 25 35 17 81 45 102
63 21 18 40 31 42 28 3 -2 -2 -44 -11 -93 -17 -100 -11 -129 32 -145 64 -25
85 0 109 123 17 90 43 151 101 238 45 68 156 179 179 179 13 0 13 -78 1 -118
-5 -14 -1 -27 13 -41 49 -49 82 -13 106 112 14 76 10 98 -25 117 -55 30 -143
-18 -249 -136 -40 -45 -51 -53 -46 -34 3 14 11 42 17 63 13 45 2 62 -51 77
-34 10 -38 8 -63 -22 -16 -18 -28 -38 -28 -45 0 -6 -11 -47 -25 -90 -24 -75
-28 -80 -95 -133 -119 -93 -199 -113 -250 -62 -26 26 -35 49 -54 134 -12 55
-59 74 -104 42 -12 -8 -46 -52 -76 -97 -57 -87 -135 -177 -153 -177 -29 0 -20
89 20 188 44 106 151 242 191 242 8 0 32 -21 55 -47 40 -47 41 -47 56 -28 10
12 15 35 13 60 -3 36 -7 42 -48 63 -47 24 -53 24 -116 12z"/>
</g>
</svg>
