<svg width="72.000000" height="72.000000" viewBox="0 0 72 72" fill="none" xmlns="http://www.w3.org/2000/svg" xmlns:xlink="http://www.w3.org/1999/xlink">
	<desc>
			Created with Pixso.
	</desc>
	<defs>
		<clipPath id="clip1_552">
			<rect id="agreement-svgrepo-com 1" width="72.000000" height="72.000000" fill="white" fill-opacity="0"/>
		</clipPath>
	</defs>
	<g clip-path="url(#clip1_552)">
		<path id="Vector" d="M55.9277 15.8639C57.3901 15.8639 58.8232 15.4798 60.0789 14.7264L72 7.68008L72 4.38586L58.5869 12.2004C57.5674 12.7913 56.4153 13.1015 55.2483 13.0867L37.4919 12.8799C36.6057 12.5549 35.8965 12.3481 35.6306 12.2447C30.0764 11.0038 25.7334 11.4913 22.7788 12.289C20.563 12.8799 18.1995 12.6583 16.1018 11.6982L0 4.31201L0 33.827L1.66919 34.7429C4.13623 36.0872 6.10083 38.17 7.32715 40.6961L6.38159 41.4642C3.84082 43.3108 3.29419 46.8857 4.96338 49.4117C5.89404 50.6378 7.20898 51.4207 8.71558 51.6866C8.89282 51.7014 9.15869 51.7162 9.35083 51.7162C9.89746 51.7457 10.4292 51.6866 10.8872 51.6128C10.9167 52.8832 11.2122 53.9763 11.9656 55.0104C12.97 56.4138 14.5654 57.049 16.2791 57.1376C16.7222 57.1672 17.1802 57.1819 17.5347 57.2115C17.3721 58.5558 17.7563 59.9296 18.5984 61.0523C19.5288 62.2784 20.8438 63.0613 22.3503 63.3272C22.5276 63.342 22.7937 63.3568 22.9856 63.3568C24.3298 63.4306 25.615 63.0465 26.6492 62.2931L27.2104 61.8647C27.3435 62.6772 27.5798 63.4158 28.082 64.0806C28.8354 65.1146 29.9729 65.8089 31.3171 66.0601C31.4944 66.0748 31.6716 66.0748 31.8638 66.0896C32.9421 66.1487 34.0354 65.8385 34.9807 65.1737L35.0693 65.1737L35.7341 66.1044C36.9011 67.7884 39.3237 68.1873 41.0078 67.0203C42.4111 66.0157 42.9724 64.051 42.3374 62.4852L42.4556 62.6624C43.5635 64.3022 45.6611 65.0112 47.4929 64.2578C49.5166 63.4306 50.3291 61.2443 49.7974 59.3682C51.1562 60.8898 53.4905 61.1852 55.1743 60.0182L55.2629 59.9296C56.947 58.7626 57.4346 56.532 56.5334 54.7593C57.9958 56.1035 60.3298 56.3104 62.0139 55.1434C63.9788 53.7104 64.4956 50.948 63.0627 48.9686L60.9651 45.9698L65.5298 40.6518C66.7263 39.2484 68.1592 38.0666 69.7546 37.136L72 35.836L72 32.3202L68.8979 34.0781C67.1252 35.0826 65.5298 36.3826 64.2002 37.9337L59.2959 43.621C57.8335 42.2767 55.4995 42.0699 53.8154 43.2369C51.8506 44.6698 51.3335 47.4323 52.7666 49.4117L52.8403 49.6038L52.7517 49.6038C51.363 48.6288 49.4724 48.5254 47.9802 49.5299L47.8916 49.6185C46.5769 50.5344 45.9565 52.1298 46.2371 53.6809L45.7644 54.0207C44.4497 53.3264 42.8247 53.3264 41.51 54.2422C40.2988 55.0843 39.6782 56.5763 39.7817 57.9353L38.4817 58.7626C37.5068 58.5262 36.4136 58.7478 35.5715 59.3239C34.5376 60.0773 33.9319 61.3182 33.9614 62.4852L33.3115 62.8988C32.9275 63.2386 32.2922 63.3863 31.7603 63.2681C31.2285 63.1499 30.6968 62.8545 30.3569 62.3818C30.0173 61.9977 29.8696 61.3625 29.9878 60.8307C30.106 60.2989 30.4014 59.7671 30.874 59.4273L37.9204 54.1241C38.2898 53.873 38.4966 53.5184 38.5112 53.0753C38.5557 52.2628 37.8613 51.5685 37.0637 51.5685C36.7534 51.5685 36.5022 51.6423 36.2363 51.79L24.98 59.9443C24.3298 60.358 23.5913 60.5943 22.7937 60.4614C21.9958 60.3284 21.2869 59.9296 20.8733 59.2796C19.9426 58.0535 20.2231 56.1774 21.5378 55.2615L34.9512 45.6891C35.2466 45.4232 35.4534 45.0539 35.4534 44.5664C35.4683 43.7983 34.833 43.1483 34.0649 43.1187C33.6216 43.104 33.2671 43.2664 32.9717 43.6062L19.8391 53.1048C19.4697 53.2673 19.2778 53.5332 18.9971 53.7843C17.4165 54.7888 15.0825 54.5673 14.2405 53.4445C13.3984 52.2332 13.5757 50.6083 14.6245 49.589L15.9392 48.6731L30.5342 38.7166C30.9036 38.4655 31.1104 38.1109 31.1252 37.6678C31.1548 37.1803 30.9185 36.7224 30.5195 36.4417C30.0024 36.0724 29.4854 36.0576 28.939 36.3826L13.3098 47.0038C13.2063 47.1811 13.0291 47.255 12.9258 47.3436L11.4189 48.4368C10.1929 49.3674 8.31689 49.0867 7.40088 47.772C6.47021 46.5459 6.75098 44.6698 8.06567 43.7539L37.5364 22.0535C39.8999 23.4421 41.6431 26.234 41.6431 26.234C44.5383 35.3042 48.1428 35.3781 50.3291 34.2849C51.4666 33.7236 51.9836 32.3793 51.5847 31.168C50.4326 27.667 49.7678 20.8865 49.7678 20.8865C48.9553 19.1286 46.3555 17.282 43.46 15.7753L52.929 15.923L55.9277 15.8639Z" fill="#FFFFFF" fill-opacity="1.000000" fill-rule="nonzero"/>
	</g>
</svg>
