<svg width="28" height="28" viewBox="0 0 28 28" fill="none" xmlns="http://www.w3.org/2000/svg">
<path fill-rule="evenodd" clip-rule="evenodd" d="M9.00012 5.75C9.00012 2.98858 11.2387 0.75 14.0001 0.75C16.7615 0.75 19.0001 2.98858 19.0001 5.75C19.0001 8.51142 16.7615 10.75 14.0001 10.75C11.2387 10.75 9.00012 8.51142 9.00012 5.75ZM14.0001 2.75C12.3433 2.75 11.0001 4.09315 11.0001 5.75C11.0001 7.40685 12.3433 8.75 14.0001 8.75C15.657 8.75 17.0001 7.40685 17.0001 5.75C17.0001 4.09315 15.657 2.75 14.0001 2.75ZM6.50012 14.25C6.50012 13.4216 7.17169 12.75 8.00012 12.75H9.00012H9.76405C11.0793 13.4076 12.5296 13.75 14.0001 13.75C15.4706 13.75 16.9209 13.4076 18.2362 12.75H19.0001H20.0001C20.8285 12.75 21.5001 13.4216 21.5001 14.25H6.50012ZM4.50012 14.25H3.19833C1.95052 14.25 1.00738 15.3801 1.23059 16.6078L2.86695 25.6078C3.03986 26.5588 3.86812 27.25 4.83469 27.25H23.1655C24.1321 27.25 24.9604 26.5588 25.1333 25.6078L26.7696 16.6078C26.9929 15.3801 26.0497 14.25 24.8019 14.25H23.5001C23.5001 12.317 21.9331 10.75 20.0001 10.75H19.0001H18.0223C17.8525 10.75 17.685 10.7895 17.5331 10.8655L17.3418 10.9611C16.3042 11.4799 15.1601 11.75 14.0001 11.75C12.8401 11.75 11.696 11.4799 10.6585 10.9611L10.4671 10.8655C10.3153 10.7895 10.1478 10.75 9.97798 10.75H9.00012H8.00012C6.06712 10.75 4.50012 12.317 4.50012 14.25ZM4.83469 25.25L3.19833 16.25H24.8019L23.1655 25.25H4.83469ZM12.0001 19H11.7146L11.7523 19.283L11.9523 20.783L12.1523 22.283L12.1812 22.5H12.4001H14.0001H15.6001H15.819L15.8479 22.283L16.0479 20.783L16.2479 19.283L16.2857 19H16.0001H14.0001H12.0001ZM12.419 20.5L12.2857 19.5H13.7501V20.5H12.419ZM14.2501 20.5V19.5H15.7146L15.5812 20.5H14.2501ZM14.2501 21H15.5146L15.3812 22H14.2501V21ZM13.7501 21V22H12.619L12.4857 21H13.7501ZM17.5001 26.25C17.5001 25.9739 17.724 25.75 18.0001 25.75H20.0001C20.2763 25.75 20.5001 25.9739 20.5001 26.25C20.5001 26.5261 20.2763 26.75 20.0001 26.75H18.0001C17.724 26.75 17.5001 26.5261 17.5001 26.25ZM21.5001 25.75C21.224 25.75 21.0001 25.9739 21.0001 26.25C21.0001 26.5261 21.224 26.75 21.5001 26.75C21.7763 26.75 22.0001 26.5261 22.0001 26.25C22.0001 25.9739 21.7763 25.75 21.5001 25.75Z" fill="#07AE6E"/>
</svg>
