<svg width="32" height="32" viewBox="0 0 32 32" fill="none" xmlns="http://www.w3.org/2000/svg">
<rect x="3" y="3" width="26" height="26" rx="3" stroke="#07AE6E" stroke-width="2"/>
<path d="M7.6 24V9.6H10.01V24H7.6ZM13.0055 24V9.6H17.5955C17.7155 9.6 17.9521 9.60333 18.3055 9.61C18.6655 9.61667 19.0121 9.64 19.3455 9.68C20.4855 9.82667 21.4488 10.2333 22.2355 10.9C23.0288 11.56 23.6288 12.4033 24.0355 13.43C24.4421 14.4567 24.6455 15.58 24.6455 16.8C24.6455 18.02 24.4421 19.1433 24.0355 20.17C23.6288 21.1967 23.0288 22.0433 22.2355 22.71C21.4488 23.37 20.4855 23.7733 19.3455 23.92C19.0188 23.96 18.6755 23.9833 18.3155 23.99C17.9555 23.9967 17.7155 24 17.5955 24H13.0055ZM15.4555 21.73H17.5955C17.7955 21.73 18.0488 21.7233 18.3555 21.71C18.6688 21.6967 18.9455 21.6667 19.1855 21.62C19.8655 21.4933 20.4188 21.19 20.8455 20.71C21.2721 20.23 21.5855 19.6467 21.7855 18.96C21.9921 18.2733 22.0955 17.5533 22.0955 16.8C22.0955 16.02 21.9921 15.2867 21.7855 14.6C21.5788 13.9133 21.2588 13.3367 20.8255 12.87C20.3988 12.4033 19.8521 12.1067 19.1855 11.98C18.9455 11.9267 18.6688 11.8967 18.3555 11.89C18.0488 11.8767 17.7955 11.87 17.5955 11.87H15.4555V21.73Z" fill="#07AE6E"/>
</svg>
