<svg width="72.000000" height="72.000000" viewBox="0 0 72 72" fill="none" xmlns="http://www.w3.org/2000/svg" xmlns:xlink="http://www.w3.org/1999/xlink">
	<desc>
			Created with Pixso.
	</desc>
	<defs>
		<clipPath id="clip1_564">
			<rect id="magic-stick-3-svgrepo-com 1" width="72.000000" height="72.000000" fill="white" fill-opacity="0"/>
		</clipPath>
	</defs>
	<g clip-path="url(#clip1_564)">
		<path id="Vector" d="M11.5337 11.5336C14.9116 8.15546 20.3887 8.15546 23.7668 11.5336L60.4666 48.2331C63.8445 51.6114 63.8445 57.0882 60.4666 60.4665C57.0881 63.8445 51.6113 63.8445 48.2332 60.4665L11.5337 23.7668C8.15552 20.3887 8.15552 14.9117 11.5337 11.5336Z" stroke="#FFFFFF" stroke-opacity="1.000000" stroke-width="6.000000"/>
		<path id="Vector" d="M18 30L30 18" stroke="#FFFFFF" stroke-opacity="1.000000" stroke-width="6.000000" stroke-linecap="round"/>
		<path id="Vector" d="M50.998 6.92157L52.2893 10.2074C52.437 10.5826 52.7327 10.8795 53.1064 11.0275L56.3801 12.3234C57.6045 12.808 57.6045 14.547 56.3801 15.0316L53.1064 16.3276C52.7327 16.4755 52.437 16.7725 52.2893 17.1476L50.9985 20.4335C50.5154 21.6622 48.783 21.6622 48.2998 20.4335L47.009 17.1476C46.8613 16.7725 46.5657 16.4755 46.1919 16.3276L42.9182 15.0316C41.6938 14.547 41.6938 12.808 42.9182 12.3234L46.1919 11.0275C46.5657 10.8795 46.8613 10.5826 47.009 10.2074L48.2998 6.92157C48.783 5.69281 50.5154 5.69281 50.998 6.92157Z" stroke="#FFFFFF" stroke-opacity="1.000000" stroke-width="4.000000"/>
		<path id="Vector" d="M62.5999 27.3884L63.0706 28.5864C63.218 28.9615 63.5139 29.2585 63.8877 29.4065L65.0811 29.879C66.3054 30.3636 66.3054 32.1027 65.0811 32.5872L63.8877 33.0597C63.5139 33.2076 63.218 33.5046 63.0706 33.8796L62.5999 35.0778C62.1169 36.3066 60.3843 36.3066 59.9016 35.0778L59.4309 33.8796C59.2832 33.5046 58.9875 33.2076 58.6138 33.0597L57.4199 32.5872C56.196 32.1027 56.196 30.3636 57.4199 29.879L58.6138 29.4065C58.9875 29.2585 59.2832 28.9615 59.4309 28.5864L59.9016 27.3884C60.3843 26.1596 62.1169 26.1596 62.5999 27.3884Z" stroke="#FFFFFF" stroke-opacity="1.000000" stroke-width="4.000000"/>
		<path id="Vector" d="M18.0979 45.9216L18.5686 47.1195C18.7161 47.4948 19.012 47.7918 19.3857 47.9397L20.5793 48.4122C21.8035 48.8967 21.8035 50.6358 20.5793 51.1203L19.3857 51.5928C19.012 51.7407 18.7161 52.0377 18.5686 52.413L18.0979 53.6109C17.615 54.8397 15.8823 54.8397 15.3997 53.6109L14.929 52.413C14.7815 52.0377 14.4856 51.7407 14.1118 51.5928L12.9182 51.1203C11.6938 50.6358 11.6938 48.8967 12.9182 48.4122L14.1118 47.9397C14.4856 47.7918 14.7815 47.4948 14.929 47.1195L15.3997 45.9216C15.8823 44.6928 17.615 44.6928 18.0979 45.9216Z" stroke="#FFFFFF" stroke-opacity="1.000000" stroke-width="4.000000"/>
	</g>
</svg>
