<svg width="32" height="32" viewBox="0 0 32 32" fill="none" xmlns="http://www.w3.org/2000/svg">
<g clip-path="url(#clip0_104_668)">
<path d="M16.0724 28.9722L19.6665 27.5898C25.2896 25.4271 29 20.0246 29 14V6.0297C29 6.0133 28.9867 6 28.9703 6C27.3298 6 26 4.67015 26 3.0297C26 3.0133 25.9867 3 25.9703 3H6.0297C6.0133 3 6 3.0133 6 3.0297C6 4.67015 4.67015 6 3.0297 6C3.0133 6 3 6.0133 3 6.0297V14C3 20.0246 6.71039 25.4271 12.3335 27.5898L15.9276 28.9722C15.9742 28.9901 16.0258 28.9901 16.0724 28.9722Z" stroke="#07AE6E" stroke-width="2"/>
<path d="M7.98 20V9.92H12.236C12.334 9.92 12.4647 9.92467 12.628 9.934C12.796 9.93867 12.9453 9.95267 13.076 9.976C13.678 10.0693 14.1703 10.2677 14.553 10.571C14.9403 10.8743 15.225 11.257 15.407 11.719C15.589 12.1763 15.68 12.6873 15.68 13.252C15.68 14.0967 15.47 14.82 15.05 15.422C14.63 16.0193 13.972 16.388 13.076 16.528L12.236 16.584H9.884V20H7.98ZM13.664 20L11.676 15.898L13.636 15.52L15.82 20H13.664ZM9.884 14.806H12.152C12.25 14.806 12.3573 14.8013 12.474 14.792C12.5907 14.7827 12.698 14.764 12.796 14.736C13.0527 14.666 13.251 14.5493 13.391 14.386C13.531 14.218 13.6267 14.0337 13.678 13.833C13.734 13.6277 13.762 13.434 13.762 13.252C13.762 13.07 13.734 12.8787 13.678 12.678C13.6267 12.4727 13.531 12.2883 13.391 12.125C13.251 11.957 13.0527 11.838 12.796 11.768C12.698 11.74 12.5907 11.7213 12.474 11.712C12.3573 11.7027 12.25 11.698 12.152 11.698H9.884V14.806ZM17.3589 20V9.92H21.6149C21.7129 9.92 21.8436 9.92467 22.0069 9.934C22.1749 9.93867 22.3242 9.95267 22.4549 9.976C23.0569 10.0693 23.5492 10.2677 23.9319 10.571C24.3192 10.8743 24.6039 11.257 24.7859 11.719C24.9679 12.1763 25.0589 12.6873 25.0589 13.252C25.0589 13.8167 24.9656 14.33 24.7789 14.792C24.5969 15.2493 24.3122 15.6297 23.9249 15.933C23.5422 16.2363 23.0522 16.4347 22.4549 16.528C22.3242 16.5467 22.1749 16.5607 22.0069 16.57C21.8389 16.5793 21.7082 16.584 21.6149 16.584H19.2629V20H17.3589ZM19.2629 14.806H21.5309C21.6289 14.806 21.7362 14.8013 21.8529 14.792C21.9696 14.7827 22.0769 14.764 22.1749 14.736C22.4316 14.666 22.6299 14.5493 22.7699 14.386C22.9099 14.218 23.0056 14.0337 23.0569 13.833C23.1129 13.6277 23.1409 13.434 23.1409 13.252C23.1409 13.07 23.1129 12.8787 23.0569 12.678C23.0056 12.4727 22.9099 12.2883 22.7699 12.125C22.6299 11.957 22.4316 11.838 22.1749 11.768C22.0769 11.74 21.9696 11.7213 21.8529 11.712C21.7362 11.7027 21.6289 11.698 21.5309 11.698H19.2629V14.806Z" fill="#07AE6E"/>
</g>
<defs>
<clipPath id="clip0_104_668">
<rect width="28" height="28" fill="white" transform="translate(2 2)"/>
</clipPath>
</defs>
</svg>
