<svg width="28" height="28" viewBox="0 0 29 28" fill="none" xmlns="http://www.w3.org/2000/svg">
<path d="M24.1884 25.2071C24.5789 25.5976 25.2121 25.5976 25.6026 25.2071C25.9931 24.8166 25.9931 24.1834 25.6026 23.7929L24.1884 25.2071ZM18.7439 19.7624L24.1884 25.2071L25.6026 23.7929L20.1582 18.3482L18.7439 19.7624ZM12.7844 20.2775C8.42749 20.2775 4.89551 16.7456 4.89551 12.3886H2.89551C2.89551 17.8501 7.32292 22.2775 12.7844 22.2775V20.2775ZM20.6733 12.3886C20.6733 16.7456 17.1413 20.2775 12.7844 20.2775V22.2775C18.2459 22.2775 22.6733 17.8501 22.6733 12.3886H20.6733ZM12.7844 4.49976C17.1413 4.49976 20.6733 8.03173 20.6733 12.3886H22.6733C22.6733 6.92716 18.2459 2.49976 12.7844 2.49976V4.49976ZM12.7844 2.49976C7.32292 2.49976 2.89551 6.92716 2.89551 12.3886H4.89551C4.89551 8.03173 8.42749 4.49976 12.7844 4.49976V2.49976Z" fill="#fff"/>
</svg>
