<svg width="24" height="24" viewBox="0 0 24 24" fill="none" xmlns="http://www.w3.org/2000/svg">
    <path
        d="M17.2765 4.79112C16.5193 3.90864 16.0641 2.75795 16.0641 1.5H15.1153M17.2765 4.79112C17.9666 5.59566 18.9009 6.18077 19.9649 6.40988C20.2956 6.48303 20.6406 6.52208 21 6.52208V10.1301C19.1598 10.1301 17.4536 9.53041 16.0639 8.51621V15.8542C16.0639 19.5208 13.131 22.5 9.53198 22.5C7.64856 22.5 5.94728 21.6808 4.75399 20.379C3.66614 19.1893 3 17.5998 3 15.8542C3 12.2413 5.84665 9.29634 9.37381 9.21833M17.2765 4.79112C17.2581 4.7789 17.2397 4.76656 17.2214 4.7541M7.11669 17.6193C6.76206 17.122 6.55119 16.5126 6.55119 15.8494C6.55119 14.1771 7.88825 12.8167 9.53206 12.8167C9.83876 12.8167 10.1359 12.8702 10.4138 12.958V9.27202C10.1263 9.23297 9.83396 9.20856 9.53206 9.20856C9.47931 9.20856 9.05469 9.23728 9.00197 9.23728M15.1102 1.5H12.5128L12.508 15.9664C12.4505 17.5852 11.1374 18.8871 9.53198 18.8871C8.53515 18.8871 7.65814 18.3848 7.11182 17.6242"
        stroke="white" stroke-width="2" stroke-linejoin="round" />
</svg>